# xmcd
#
# Track frame offsets: 
#        150
#        10030
#        27070
#        42827
#        60515
#        70085
#        97977
#        112457
#        121550
#        133995
#        144527
#        167200
#        201180
#        225440
#        245222
#        256022
#        270757
#        304545
#
# Disc length: 4143 seconds
#
# Revision: 1
# Processed by: cddbd v1.5.2PL0 Copyright (c) Steve Scherf et al.
# Submitted via: ExactAudioCopy v1.0b2
#
DISCID=ec102d12
DTITLE=Quatuors Wiener Konzerthaus - Quatuors Wiener Konzerthaus
DYEAR=1900
DGENRE=
TTITLE0=Op.1 №6 C-Dur 1-Presto assai
TTITLE1=Op.1 №6 C-Dur 2-Menuetto
TTITLE2=Op.1 №6 C-Dur 3-Adagio
TTITLE3=Op.1 №6 C-Dur 4-Menuetto
TTITLE4=Op.1 №6 C-Dur 5-Finale Presto
TTITLE5=Op.2 №6 B-Dur 1-adagio
TTITLE6=Op.2 №6 B-Dur 2-Menuetto
TTITLE7=Op.2 №6 B-Dur 3-presto
TTITLE8=Op.2 №6 B-Dur 4-Menuetto
TTITLE9=Op.2 №6 B-Dur 5-Presto
TTITLE10=Op.76 №3 C-Dur 1-Allegro
TTITLE11=Op.76 №3 C-Dur 2-poco adagio cantabile
TTITLE12=Op.76 №3 C-Dur 3-Menuetto Allegro
TTITLE13=Op.76 №3 C-Dur 4-Finale Presto
TTITLE14=Op. Posth. E-Dur 1-Allegro
TTITLE15=Op. Posth. E-Dur 2-menuetto
TTITLE16=Op. Posth. E-Dur 3-Adagio
TTITLE17=Op. Posth. E-Dur 4-Finale Presto
EXTD=
EXTT0=
EXTT1=
EXTT2=
EXTT3=
EXTT4=
EXTT5=
EXTT6=
EXTT7=
EXTT8=
EXTT9=
EXTT10=
EXTT11=
EXTT12=
EXTT13=
EXTT14=
EXTT15=
EXTT16=
EXTT17=
PLAYORDER=
